<svg xmlns="http://www.w3.org/2000/svg" version="1.1" xmlns:xlink="http://www.w3.org/1999/xlink" xmlns:svgjs="http://svgjs.dev/svgjs" viewBox="0 0 1422 800"><defs><linearGradient x1="50%" y1="0%" x2="50%" y2="100%" id="oooscillate-grad"><stop stop-color="hsl(230, 36%, 82%)" stop-opacity="1" offset="0%"></stop><stop stop-color="hsl(230, 100%, 50%)" stop-opacity="1" offset="100%"></stop></linearGradient></defs><g stroke-width="1" stroke="url(#oooscillate-grad)" fill="none" stroke-linecap="round"><path d="M 0 735 Q 355.5 400 711 400 Q 1066.5 400 1422 735" opacity="1.00"></path><path d="M 0 714 Q 355.5 400 711 400 Q 1066.5 400 1422 714" opacity="0.97"></path><path d="M 0 693 Q 355.5 400 711 400 Q 1066.5 400 1422 693" opacity="0.94"></path><path d="M 0 672 Q 355.5 400 711 400 Q 1066.5 400 1422 672" opacity="0.92"></path><path d="M 0 651 Q 355.5 400 711 400 Q 1066.5 400 1422 651" opacity="0.89"></path><path d="M 0 630 Q 355.5 400 711 400 Q 1066.5 400 1422 630" opacity="0.86"></path><path d="M 0 609 Q 355.5 400 711 400 Q 1066.5 400 1422 609" opacity="0.83"></path><path d="M 0 588 Q 355.5 400 711 400 Q 1066.5 400 1422 588" opacity="0.80"></path><path d="M 0 567 Q 355.5 400 711 400 Q 1066.5 400 1422 567" opacity="0.78"></path><path d="M 0 546 Q 355.5 400 711 400 Q 1066.5 400 1422 546" opacity="0.75"></path><path d="M 0 525 Q 355.5 400 711 400 Q 1066.5 400 1422 525" opacity="0.72"></path><path d="M 0 504 Q 355.5 400 711 400 Q 1066.5 400 1422 504" opacity="0.69"></path><path d="M 0 483 Q 355.5 400 711 400 Q 1066.5 400 1422 483" opacity="0.66"></path><path d="M 0 462 Q 355.5 400 711 400 Q 1066.5 400 1422 462" opacity="0.64"></path><path d="M 0 441 Q 355.5 400 711 400 Q 1066.5 400 1422 441" opacity="0.61"></path><path d="M 0 420 Q 355.5 400 711 400 Q 1066.5 400 1422 420" opacity="0.58"></path><path d="M 0 399 Q 355.5 400 711 400 Q 1066.5 400 1422 399" opacity="0.55"></path><path d="M 0 378 Q 355.5 400 711 400 Q 1066.5 400 1422 378" opacity="0.53"></path><path d="M 0 357 Q 355.5 400 711 400 Q 1066.5 400 1422 357" opacity="0.50"></path><path d="M 0 336 Q 355.5 400 711 400 Q 1066.5 400 1422 336" opacity="0.47"></path><path d="M 0 315 Q 355.5 400 711 400 Q 1066.5 400 1422 315" opacity="0.44"></path><path d="M 0 294 Q 355.5 400 711 400 Q 1066.5 400 1422 294" opacity="0.41"></path><path d="M 0 273 Q 355.5 400 711 400 Q 1066.5 400 1422 273" opacity="0.39"></path><path d="M 0 252 Q 355.5 400 711 400 Q 1066.5 400 1422 252" opacity="0.36"></path><path d="M 0 231 Q 355.5 400 711 400 Q 1066.5 400 1422 231" opacity="0.33"></path><path d="M 0 210 Q 355.5 400 711 400 Q 1066.5 400 1422 210" opacity="0.30"></path><path d="M 0 189 Q 355.5 400 711 400 Q 1066.5 400 1422 189" opacity="0.27"></path><path d="M 0 168 Q 355.5 400 711 400 Q 1066.5 400 1422 168" opacity="0.25"></path><path d="M 0 147 Q 355.5 400 711 400 Q 1066.5 400 1422 147" opacity="0.22"></path><path d="M 0 126 Q 355.5 400 711 400 Q 1066.5 400 1422 126" opacity="0.19"></path><path d="M 0 105 Q 355.5 400 711 400 Q 1066.5 400 1422 105" opacity="0.16"></path><path d="M 0 84 Q 355.5 400 711 400 Q 1066.5 400 1422 84" opacity="0.13"></path><path d="M 0 63 Q 355.5 400 711 400 Q 1066.5 400 1422 63" opacity="0.11"></path><path d="M 0 42 Q 355.5 400 711 400 Q 1066.5 400 1422 42" opacity="0.08"></path></g></svg>